<svg id="Capa_1" enable-background="new 0 0 512 512" height="512" viewBox="0 0 512 512" width="512" xmlns="http://www.w3.org/2000/svg"><path id="XMLID_3246_" d="m47.439 189.903h424v224h-424z" fill="#ffcb7c"/><path id="XMLID_3245_" d="m47.439 269.903h424v64h-424z" fill="#fff"/><path id="XMLID_3244_" d="m428 501.903h-344c-26.51 0-48-21.49-48-48h440c0 26.51-21.49 48-48 48z" fill="#b0e7f8"/><path id="XMLID_3241_" d="m482 453.903h-452c-11.046 0-20-8.954-20-20 0-11.046 8.954-20 20-20h452c11.046 0 20 8.954 20 20 0 11.046-8.954 20-20 20z" fill="#cff1fb"/><path id="XMLID_3235_" d="m471.439 189.903-298-126c-69.588 0-126 56.412-126 126h136.101c13.255 0 24 10.745 24 24v88.649c0 17.496 14.423 31.624 32.028 31.141 16.969-.465 30.278-14.814 30.278-31.79v-63.237c0 17.205 13.948 31.153 31.153 31.153s31.153-13.948 31.153-31.153v93.162c0 17.496 14.423 31.624 32.028 31.141 16.969-.465 30.278-14.814 30.278-31.79v-117.277c0-13.255 10.745-24 24-24h52.981z" fill="#f5737f"/><circle id="XMLID_3230_" cx="256.015" cy="94.308" fill="#ff9d6c" r="39.807"/><path id="XMLID_1206_" d="m512 433.903c0-16.542-13.458-30-30-30h-.561v-214c0-4.018-2.405-7.646-6.105-9.21l-171.493-72.51c1.281-4.408 1.981-9.06 1.981-13.875 0-23.638-16.558-43.469-38.681-48.538 3.875-14.755 17.324-25.673 33.278-25.673 5.523 0 10-4.477 10-10s-4.477-10-10-10c-26.886 0-49.266 19.609-53.623 45.274-14.57 2.739-26.915 11.839-34.04 24.3l-35.422-14.977c-1.232-.521-2.557-.79-3.895-.79-74.991 0-136 61.009-136 136v214h-7.439c-16.542 0-30 13.458-30 30 0 15.478 11.784 28.255 26.851 29.834 4.686 27.312 28.521 48.166 57.149 48.166h344c28.628 0 52.463-20.854 57.149-48.166 15.067-1.58 26.851-14.356 26.851-29.835zm-107.541-110v-44h56.98v44zm0-110c0-7.72 6.28-14 14-14h42.98v60h-56.98zm-148.444-149.402c16.436 0 29.807 13.371 29.807 29.807s-13.372 29.807-29.807 29.807-29.807-13.371-29.807-29.807 13.371-29.807 29.807-29.807zm-84.563 9.419 35.074 14.83c-.204 1.826-.318 3.678-.318 5.557 0 27.463 22.343 49.807 49.807 49.807 15.466 0 29.307-7.086 38.45-18.182l127.646 53.971h-3.652c-18.748 0-34 15.252-34 34v117.277c0 11.706-9.22 21.482-20.552 21.793-5.764.157-11.224-1.966-15.351-5.982-4.129-4.018-6.404-9.403-6.404-15.163v-93.162c0-5.523-4.477-10-10-10s-10 4.477-10 10c0 11.664-9.489 21.153-21.153 21.153s-21.153-9.489-21.153-21.153c0-5.523-4.477-10-10-10s-10 4.477-10 10v63.236c0 11.707-9.22 21.483-20.552 21.794-5.768.144-11.224-1.966-15.351-5.982-4.129-4.018-6.404-9.402-6.404-15.163v-88.649c0-18.748-15.252-34-34-34h-125.664c5.032-58.647 53.883-104.974 113.577-105.982zm102.125 249.983c3.962-6.421 6.27-13.971 6.27-22v-27.946c6.185 3.722 13.423 5.863 21.153 5.863s14.968-2.142 21.153-5.863v49.946zm-90.036-124c7.72 0 14 6.28 14 14v46h-140.102v-60zm-126.102 80h140.101v22.649c0 7.665 2.072 14.987 5.951 21.351h-146.052zm0 64h266.503c1.994 6.539 5.616 12.508 10.668 17.423 7.752 7.542 17.897 11.656 28.681 11.656.387 0 .776-.005 1.165-.016 17.71-.486 32.76-12.669 38.008-29.063h58.976v60h-404v-60zm424.561 100h-180.71c-5.523 0-10 4.477-10 10s4.477 10 10 10h163.366c-4.402 16.116-19.163 28-36.655 28h-344.001c-17.492 0-32.253-11.884-36.655-28h163.945c5.523 0 10-4.477 10-10s-4.477-10-10-10h-181.29c-5.514 0-10-4.486-10-10s4.486-10 10-10h452c5.514 0 10 4.486 10 10s-4.486 10-10 10z"/><path id="XMLID_1236_" d="m256.29 443.9c-2.63 0-5.21 1.07-7.07 2.93s-2.93 4.44-2.93 7.07 1.07 5.21 2.93 7.07c1.86 1.87 4.44 2.93 7.07 2.93s5.21-1.06 7.07-2.93c1.86-1.86 2.93-4.43 2.93-7.07 0-2.63-1.07-5.21-2.93-7.07s-4.44-2.93-7.07-2.93z"/></svg>